<svg xmlns="http://www.w3.org/2000/svg" width="95.5" height="120" viewBox="0 0 95.5 120"><g fill="none" stroke="#999" stroke-linecap="round" stroke-linejoin="round" stroke-miterlimit="10"><path d="M62.5 96.816v9.092c0 3.455-2.726 6.183-6.182 6.183H9.954c-4.183 0-7.454-3.456-7.454-7.455V14.09c0-3.453 2.725-6.181 6.181-6.181h47.635c3.454 0 6.183 2.909 6.183 6.181v69.818M4.137 17.726h58.179M4.137 101.363h58.179M29.59 14.089h5.455"/><circle cx="32.134" cy="106.271" r="2.182"/><path d="M62.5 88.817v3.638"/><path stroke-width=".75" stroke-dasharray="2" d="M3.953 33.908h17.639v15.636m40.542-17.636H41.408m20.726 29.091H38.317V45.362M3.953 71.363h24.909m-7.27 27.997V84.816"/><circle stroke-width=".75" cx="21.592" cy="51.181" r="1.637"/><circle stroke-width=".75" cx="38.498" cy="31.909" r="1.637"/><circle stroke-width=".75" cx="38.498" cy="41.908" r="1.637"/><circle stroke-width=".75" cx="31.408" cy="71.36" r="1.637"/><circle stroke-width=".75" cx="46.5" cy="87.179" r="1.636"/><circle stroke-width=".75" cx="21.592" cy="83.362" r="1.637"/><path stroke-width=".75" stroke-dasharray="2" d="M62.134 71.363H46.5v13.453"/></g></svg>