<svg xmlns="http://www.w3.org/2000/svg" width="100" height="90" viewBox="-23.44 -18.382 100 90"><path fill="none" stroke="#999" stroke-linecap="round" stroke-linejoin="round" stroke-miterlimit="10" d="M29.835 27.92l20.231 36.022c.586.936 1.754 1.289 2.689.701.821-.469 1.17-1.521.703-2.341l-1.987-3.511-18.479-32.742-3.157 1.871z"/><path fill="none" stroke="#999" stroke-linecap="round" stroke-linejoin="round" stroke-miterlimit="10" d="M34.395 38.331c-5.383 2.455-11.695 3.154-17.895 1.4C2.582 35.874-5.603 21.488-1.861 7.572c3.742-13.916 18.244-22.103 32.163-18.36C44.217-6.929 52.403 7.456 48.661 21.373c-1.519 5.611-4.794 10.29-9.121 13.684"/><path fill="none" stroke="#999" stroke-linecap="round" stroke-linejoin="round" stroke-miterlimit="10" d="M32.408 34.586c-4.444 1.987-9.709 2.574-14.738 1.169C5.975 32.602-.808 20.436 2.351 8.855 5.507-2.838 17.67-9.621 29.247-6.464c11.581 3.159 18.48 15.319 15.322 26.898-1.286 4.676-3.977 8.653-7.604 11.342"/><circle fill="#999" cx="-9.579" cy="-4.943" r="2.456"/><path fill="none" stroke="#999" stroke-linecap="round" stroke-linejoin="round" stroke-miterlimit="10" d="M6.326 6.4l7.836 6.666 6.55-7.134 6.315 18.479 4.445-9.589h11.462M-1.626.906L-7.122-3.54"/><circle fill="#999" cx="13.578" cy="12.951" r="2.455"/><circle fill="#999" cx="20.944" cy="5.582" r="2.455"/><circle fill="#999" cx="27.262" cy="23.475" r="2.456"/><path fill="none" stroke="#999" stroke-linecap="round" stroke-linejoin="round" stroke-miterlimit="10" d="M52.291 14.822h7.014m3.507 0h2.341"/></svg>