<svg xmlns="http://www.w3.org/2000/svg" width="100" height="120" viewBox="0 0 100 120"><path fill="none" stroke="#999" stroke-linecap="round" stroke-linejoin="round" stroke-miterlimit="10" d="M57.051 100.596v8.596c0 3.291-2.742 5.85-5.85 5.85H7.132c-3.838 0-7.132-3.291-7.132-7.129V21.965c0-3.293 2.563-5.85 5.853-5.85h45.349c3.293 0 6.034 2.742 6.034 6.034v66.382M2.196 26.352h54.855m-54.855 78.63h54.855M25.966 20.868h5.486"/><circle fill="none" stroke="#999" stroke-linecap="round" stroke-linejoin="round" stroke-miterlimit="10" cx="28.158" cy="109.738" r="2.01"/><path fill="none" stroke="#999" stroke-linecap="round" stroke-linejoin="round" stroke-miterlimit="10" d="M57.051 92.916v3.654M7.312 37.51h42.244v28.158H7.312zm8.594 40.044h25.605M15.906 88.523h25.605"/><path fill="none" stroke="#999" stroke-miterlimit="10" d="M68.939 27.45h-2.928c-.184 0-.549-.183-.549-.548 0-.364.184-.549.549-.549h2.928c.182 0 .547.185.547.549 0 .365-.181.548-.547.548z"/><path fill="none" stroke="#999" stroke-miterlimit="10" d="M67.477 28.912c-.182 0-.547-.183-.547-.546v-2.928c0-.183.182-.548.547-.548.367 0 .545.182.545.548v3.108c-.001.186-.182.366-.545.366zM54.309 8.437h-4.202c-.367 0-.73-.366-.73-.732s.367-.733.73-.733h4.202c.369 0 .732.367.732.733 0 .364-.182.732-.732.732z"/><path fill="none" stroke="#999" stroke-miterlimit="10" d="M52.297 10.626c-.367 0-.73-.367-.73-.729V5.69c0-.366.367-.731.73-.731.365 0 .732.366.732.731v4.208c.001.363-.366.728-.732.728z"/><g fill="none" stroke="#999" stroke-miterlimit="10"><path d="M65.646 14.286H63.82c-.182 0-.367-.185-.367-.368 0-.182.184-.365.367-.365h1.826c.184 0 .369.183.369.365-.003.184-.185.368-.369.368z"/><path d="M64.73 15.2c-.18 0-.363-.185-.363-.366v-1.828c0-.183.18-.366.363-.366s.371.183.371.366v1.828c-.003.183-.187.366-.371.366z"/></g></svg>