<svg xmlns="http://www.w3.org/2000/svg" width="100" height="120" viewBox="-23.899 -27.347 100 120"><path fill="#999" d="M17.069 16.944c-.486 0-10.691.16-17.332 7.126-4.211 4.211-5.994 10.042-5.669 17.495 0 .811-.161 1.617-.647 2.43l-5.021 8.906c-.162.163-.81 1.62 0 2.917.641.77 1.791 1.234 3.528 1.234.457 0 .955-.031 1.493-.1v7.775c0 .162 0 3.076 2.268 4.533.813.59 1.826.878 3.027.878 1.434 0 3.133-.408 5.071-1.2v2.429c0 .325.163.484.486.484.324 0 .486-.159.972-.646v-3.239c0-.159 0-.325-.16-.484h-.486c-2.049.975-3.862 1.479-5.336 1.479-.972 0-1.795-.22-2.439-.67-1.782-1.297-1.782-3.727-1.782-3.727v-8.26s0-.162-.163-.324c-.162-.163-.324-.163-.486-.163-.769.103-1.474.157-2.093.157-1.335 0-2.271-.251-2.604-.805-.486-.813 0-1.784 0-1.784l5.021-8.907c.486-.972.648-2.104.648-3.076-.323-6.965 1.458-12.635 5.346-16.684 6.318-6.804 16.36-6.804 16.36-6.804 8.909 1.297 15.387 4.86 18.789 10.367 5.184 8.426 2.107 18.627 2.107 18.789-.163.325 0 .484.323.647a.493.493 0 0 0 .229.065c.183 0 .301-.154.419-.391 0-.484 3.239-10.852-2.27-19.598-3.563-5.828-10.204-9.391-19.599-10.849z"/><path fill="#999" d="M36.583-14.648a20.29 20.29 0 0 0-5.1.654C24.52-12.213 19.012-8.163 15.772-2.655 12.695 2.69 12.047 9.17 13.828 15.648c.163.325.325.325.647.325.325-.162.325-.325.325-.647-1.782-6.156-1.134-12.31 1.781-17.493 3.077-5.346 8.423-9.233 15.064-10.854 1.61-.444 3.223-.66 4.849-.66 3.11 0 6.27.791 9.567 2.281 3.401 1.619 6.154 4.048 8.099 6.964 2.431 3.565 2.592 7.129 2.916 11.015.162.972.162 2.268.323 3.401.162 1.297 1.297 3.401 2.592 5.507 1.619 2.917 3.725 6.316 2.753 7.775-.333.553-1.119.804-2.309.804-.55 0-1.186-.053-1.903-.155-.161 0-.323 0-.485.161-.163 0-.163.163-.163.324 0 .813.163 1.785.163 2.755.162 1.945.162 4.047-.163 5.992-.323 1.458-.972 2.592-2.104 3.077-.654.297-1.438.442-2.321.442-1.525 0-3.344-.431-5.291-1.252-.082-.079-.163-.122-.244-.122s-.162.043-.242.122c0 .163-.163.325-.163.487v6.966c0 .325.163.484.486.484.258 0 .517-.208.611-.208.023 0 .037.015.037.046V37.03c1.258.527 3.129 1.117 4.951 1.117.991 0 1.968-.174 2.822-.63 1.459-.81 2.269-2.107 2.592-3.889.324-2.105.324-4.211.163-6.318-.163-.646-.163-1.457-.163-2.103.506.067.979.098 1.413.098 1.649 0 2.772-.463 3.284-1.234 1.458-1.943-.646-5.507-2.59-8.91-1.135-2.104-2.27-4.048-2.431-5.183-.163-1.133-.163-2.267-.325-3.401-.323-3.888-.647-7.612-3.076-11.5-1.944-3.076-5.022-5.507-8.585-7.29-3.429-1.606-6.788-2.435-10.125-2.435zm.644 65.679c-1.864 0-3.747.57-5.417 1.708-3.24 2.27-4.698 6.803-3.402 10.529.486 1.297 1.296 2.429 1.944 3.563.647.973 1.133 1.944 1.619 2.917.973 2.102.973 4.046 1.135 6.478 0 .484.486.81.973.81h7.126v-.484c-.162-2.107.162-4.214.81-6.155.486-1.298 1.135-2.433 1.944-3.564.486-.647.973-1.457 1.298-2.104 2.104-3.89 1.132-8.747-2.107-11.502a9.109 9.109 0 0 0-5.923-2.196zm-3.15 24.87c0-2.589-.162-4.533-1.135-6.803-.485-1.132-1.133-2.104-1.781-3.076-.649-.973-1.459-2.104-1.782-3.238-1.134-3.242.161-7.288 3.076-9.232 1.458-.972 3.239-1.457 4.859-1.457 1.945 0 3.888.645 5.022 1.944 2.915 2.427 3.725 6.8 1.944 10.201-.326.65-.648 1.298-1.135 1.944-.648 1.133-1.458 2.27-1.944 3.727-.648 1.941-.808 3.887-.808 5.99h-6.316z"/><path fill="#999" d="M37.3 51.031c-1.902 0-3.822.57-5.491 1.708-3.24 2.27-4.699 6.803-3.403 10.529.486 1.297 1.134 2.429 1.945 3.563.646.973 1.133 1.944 1.619 2.917.972 2.267.972 4.373 1.135 6.803 0 .322.323.647.648.647h7.126c.161 0 .324 0 .486-.163l.16-.162v-.163c-.16-2.101.162-4.208.811-6.152.323-1.297.973-2.432 1.782-3.563.486-.647.972-1.457 1.294-2.104 2.107-4.049 1.298-8.909-2.104-11.661a9.229 9.229 0 0 0-6.008-2.199zm-3.06 24.87c0-2.267-.163-4.37-1.135-6.64-.486-1.135-1.135-2.104-1.782-3.077-.647-.972-1.458-2.104-1.782-3.238-.972-3.404.325-7.29 3.078-9.234 1.296-.973 3.076-1.457 4.697-1.457 1.944 0 3.888.646 5.022 1.944 2.915 2.429 3.725 6.64 1.944 10.041-.327.65-.648 1.298-1.135 1.944-.648 1.133-1.459 2.27-1.944 3.727-.649 1.941-.809 4.049-.809 5.99H34.24zm14.676-24.562c-.1 0-.194.037-.261.105l-2.756 1.781c-.323.16-.323.485-.159.647.159 0 .323.162.485.162 0 0 .071-.073.12-.073.024 0 .041.02.041.073l2.756-1.781c.323-.163.323-.488.16-.647-.094-.191-.246-.267-.386-.267zm3.625 7.07h-3.399c-.325 0-.486.162-.486.487 0 .16 0 .322.161.485.081.079.121.122.162.122s.081-.043.163-.122h3.399c.325 0 .486-.163.486-.485 0-.324-.161-.487-.486-.487zm-25.916 0h-3.402c-.323 0-.486.162-.486.487 0 .16 0 .322.163.485.08.079.121.122.162.122s.081-.043.162-.122h3.402c.325 0 .485-.163.485-.485-.001-.324-.161-.487-.486-.487zm21.218 7.451c-.159 0-.486 0-.646.324 0 .163 0 .485.323.647l2.267.973h.163c.162 0 .323-.163.485-.325 0-.162 0-.484-.323-.647l-2.269-.972zM24.905 51.176c-.14 0-.291.077-.385.269-.162.162 0 .484.162.646l2.754 1.782c.161.162.161.162.324.162.162 0 .323-.162.323-.324.162-.163 0-.485-.161-.647l-2.754-1.782a.38.38 0 0 0-.263-.106zm2.462 14.62a.59.59 0 0 0-.255.063l-2.267.972c-.324 0-.486.325-.324.647.162.162.324.325.486.325h.162l2.268-.973c.323 0 .486-.325.323-.647a.377.377 0 0 0-.393-.387z"/><path fill="#999" d="M41.204 76.71h-7.612c-.324 0-.486.163-.486.488v.324c0 1.295 1.135 2.43 2.431 2.43h3.725c1.296 0 2.431-1.135 2.431-2.43v-.324c-.004-.325-.166-.488-.489-.488zm-.487.973c-.163.813-.809 1.297-1.458 1.297h-3.726c-.811 0-1.296-.646-1.458-1.297h6.642zm-4.374-21.54c-3.238 0-4.211 3.076-4.373 4.371 0 .324.162 1.781.486 1.781s.485-1.294.485-1.781c0-.163.325-3.887 3.401-3.887.324 0 .486 0 .486-.325.002-.159-.161-.159-.485-.159z"/></svg>