<svg xmlns="http://www.w3.org/2000/svg" width="100" height="90" viewBox="-16 -16.474 100 90"><path fill="none" stroke="#999" stroke-linecap="round" stroke-linejoin="round" stroke-miterlimit="10" d="M67.043 63.219H.958c-4.63 0-8.426-3.797-8.426-8.427V12.173c0-4.631 3.796-8.426 8.426-8.426h66.085c4.627 0 8.425 3.794 8.425 8.426v42.623c0 4.626-3.795 8.423-8.425 8.423zM18.809 2.924v-5.127c0-2.149 1.814-3.963 3.966-3.963h24.611c1.656 0 2.806 1.318 2.806 2.804v6.276M6.419 2.586h4.134v.991H6.419zm52.04-.157h4.133v.99h-4.133z"/><path fill="none" stroke="#999" stroke-linecap="round" stroke-linejoin="round" stroke-miterlimit="10" d="M32.519 33.653h4.131v6.114h-4.131z"/><path fill="none" stroke="#999" stroke-miterlimit="10" d="M-7.458 17.457l2.647 2.803C5.428 30.837 19.475 36.783 34.015 36.783c15.038 0 29.242-6.273 39.481-17.178l1.813-1.982"/><path fill="none" stroke="#999" stroke-linecap="round" stroke-linejoin="round" stroke-miterlimit="10" d="M19.632-2.865h29.737M-2.838 14.65s4.629 6.939 13.549 10.733"/></svg>