<svg xmlns="http://www.w3.org/2000/svg" width="122" height="186" viewBox="-12.186 -60.6 122 186"><path fill="none" stroke="#999" stroke-linecap="round" stroke-linejoin="round" stroke-miterlimit="10" d="M88.996 39.624v-56.55L71.324-34.6H-9.968V97.351h96.606V79.68"/><path fill="none" stroke="#999" stroke-linecap="round" stroke-linejoin="round" stroke-miterlimit="10" d="M70.145-33.42v9.897c0 4.236 3.535 7.774 7.775 7.774h9.903m-85.3-.001h54.665v25.921H2.523zm.467 40.058h51.839M2.99 33.738h61.265M2.99 45.747h26.861v24.507H2.99zm34.168 0H64.02v24.507H37.158zm37.228 11.787V79.68h35.582V57.534h-3.298"/><path fill="none" stroke="#999" stroke-linecap="round" stroke-linejoin="round" stroke-miterlimit="10" d="M93.002 70.965l-4.006-8.014-4.947 4.482-1.416-20.739 15.551 13.67-5.415.471"/></svg>