<svg xmlns="http://www.w3.org/2000/svg" width="91.848" height="50.734" viewBox="4.076 6.008 91.848 50.734"><path fill="none" stroke="#999" stroke-linecap="round" stroke-linejoin="round" stroke-miterlimit="10" d="M56.727 56.242h6.046m4.536 0h3.023m8.768-.303a16.258 16.258 0 0 0 16.324-16.326c0-9.07-7.256-16.326-16.324-16.326-2.723 0-5.291.604-7.406 1.814C68.971 14.37 59.146 6.508 47.658 6.508c-13.454 0-24.489 10.733-24.791 24.186-1.512-.604-3.176-1.057-4.989-1.057-7.256 0-13.302 5.896-13.302 13.15 0 7.256 5.896 13.152 13.302 13.152h29.931"/></svg>