<svg xmlns="http://www.w3.org/2000/svg" width="100" height="172" viewBox="-30.982 -54.454 100 172"><path fill="none" stroke="#999" stroke-linecap="round" stroke-linejoin="round" stroke-miterlimit="10" d="M-22.557 105.046h78.279m-59.628-1.612l7.597-90.018H.697c-1.609 0-2.991-1.381-2.991-2.994 0-1.378 1.153-2.531 2.535-2.531H44.21c.922 0 1.61.689 1.61 1.613v.917c0 1.615-1.381 2.994-2.993 2.994h-3.451l6.906 90.938"/><circle fill="none" stroke="#999" stroke-linecap="round" stroke-linejoin="round" stroke-miterlimit="10" cx="21.188" cy="-2.93" r="4.144"/><path fill="none" stroke="#999" stroke-linecap="round" stroke-linejoin="round" stroke-miterlimit="10" d="M-1.375-14.673h46.274l-23.481-23.48z"/><path d="M36.841-5.232l5.527-1.612m14.963-3.91l5.527-1.615M36.841-.856L42.368.753m14.963 4.143l5.527 1.613M7.375-5.232L1.85-6.844m-14.967-3.91l-5.526-1.615M7.375-.856L1.85.753m-14.967 4.143l-5.526 1.613" fill="none" stroke="#999" stroke-linecap="round" stroke-linejoin="round"/><path fill="none" stroke="#999" stroke-miterlimit="10" d="M8.755 104.581c11.969-5.988 24.174-11.97 36.144-17.958m-47.657 2.538l45.819-23.023"/><path fill="none" stroke="#999" stroke-linecap="round" stroke-linejoin="round" stroke-miterlimit="10" d="M-.913 67.058l42.132-21.181M.927 44.726l38.447-17.267"/><path fill="none" stroke="#999" stroke-miterlimit="10" d="M2.998 24.465C15.2 18.94 27.405 13.416 39.606 7.889"/><path fill="none" stroke="#999" stroke-linecap="round" stroke-linejoin="round" stroke-miterlimit="10" d="M58.022 105.046h4.606"/></svg>