<svg xmlns="http://www.w3.org/2000/svg" width="100" height="110" viewBox="-25.48 -27.105 100 110"><path fill="none" stroke="#999" stroke-linecap="round" stroke-linejoin="round" stroke-miterlimit="10" d="M-5.341-2.345h18.24v16.639h-18.24z"/><path fill="none" stroke="#999" stroke-linecap="round" stroke-linejoin="round" stroke-miterlimit="10" d="M51.936 25.336V-5.386L39.777-16.905h-55.038v89.599H50.18l.478-9.601"/><path fill="none" stroke="#999" stroke-linecap="round" stroke-linejoin="round" stroke-miterlimit="10" d="M38.977-16.584v6.72c0 2.879 2.399 5.279 5.281 5.279h6.72m-2.399 34.079c8.129 0 14.722 6.591 14.722 14.722 0 8.129-6.593 14.719-14.722 14.719s-14.717-6.59-14.717-14.719c0-8.131 6.588-14.722 14.717-14.722z"/><path fill="none" stroke="#999" stroke-linecap="round" stroke-linejoin="round" stroke-miterlimit="10" d="M41.376 46.614l3.527 4 10.559-10.398M-4.86 24.694h17.6m-17.6 9.6h33.598m-33.598 11.2h33.598M-4.86 56.691h33.598"/></svg>