<svg xmlns="http://www.w3.org/2000/svg" width="100" height="90" viewBox="-26.561 -17.574 100 90"><path fill="none" stroke="#999" stroke-linecap="round" stroke-linejoin="round" stroke-miterlimit="10" d="M-12.5-4.448h60.988V69.61H-12.5z"/><path fill="none" stroke="#999" stroke-linecap="round" stroke-linejoin="round" stroke-miterlimit="10" d="M2.165-8.951v-5.808h57.214v67.233h-6.824M-12.065 5.57h59.538"/><circle fill="none" stroke="#999" stroke-miterlimit="10" cx="-7.999" cy=".635" r="1.161"/><circle fill="none" stroke="#999" stroke-miterlimit="10" cx="-2.191" cy=".635" r="1.161"/><circle fill="none" stroke="#999" stroke-miterlimit="10" cx="3.617" cy=".635" r="1.161"/><path fill="none" stroke="#999" stroke-linecap="round" stroke-linejoin="round" stroke-miterlimit="10" d="M-6.111 15.01h20.184v16.262H-6.111zm23.96 28.462h20.187v16.264H17.849zm2.032-26.285h18.878m-18.878 7.262h18.878M-7.708 49.133h18.877m-18.877 7.261h18.877M-6.111 15.01l20.184 16.262m0-16.262L-6.111 31.272m24.685 12.779l18.734 15.103m0-15.103L17.849 59.88"/></svg>