<svg xmlns="http://www.w3.org/2000/svg" width="100" height="90" viewBox="-17.108 -14.155 100 90"><path fill="none" stroke="#999" stroke-linecap="round" stroke-linejoin="round" stroke-miterlimit="10" d="M62.687.719h7.168c3.314 0 6.103 2.787 6.103 6.104v46.583c0 3.317-2.788 6.105-6.103 6.105H-4.069c-3.318 0-6.105-2.788-6.105-6.105V6.824c0-3.317 2.787-6.104 6.105-6.104h6.104m29.729 59.19v10.618m-19.243.663h34.505M-8.712 51.285h83.609"/><circle fill="none" stroke="#999" stroke-linecap="round" stroke-linejoin="round" stroke-miterlimit="10" cx="31.764" cy="55.265" r="1.593"/><path fill="none" stroke="#999" stroke-linecap="round" stroke-linejoin="round" stroke-miterlimit="10" d="M49.679 71.191h3.984M5.752-9.5h54.016v60.386H5.752z"/><path fill="none" stroke="#999" stroke-linejoin="round" stroke-miterlimit="10" d="M5.886-4.456h53.086"/><path fill="#999" d="M50.478-7.508a.797.797 0 0 0-.799.796.798.798 0 0 0 1.596 0 .798.798 0 0 0-.797-.796zm2.789 0a.797.797 0 1 0-.004 1.594.797.797 0 0 0 .004-1.594zm2.785 0a.795.795 0 1 0 0 1.592.796.796 0 0 0 0-1.592z"/><path fill="none" stroke="#999" stroke-linecap="round" stroke-linejoin="round" stroke-miterlimit="10" d="M14.645 2.71h35.567v30.791H14.645z"/><path fill="none" stroke="#999" stroke-linecap="round" stroke-linejoin="round" stroke-miterlimit="10" d="M15.441 30.845l9.291-9.29a1.682 1.682 0 0 1 2.388 0l7.831 8.096"/><path fill="none" stroke="#999" stroke-linecap="round" stroke-linejoin="round" stroke-miterlimit="10" d="M32.029 26.732l6.636-6.636a1.683 1.683 0 0 1 2.39 0l8.493 8.494"/><circle fill="none" stroke="#999" stroke-linecap="round" stroke-linejoin="round" stroke-miterlimit="10" cx="32.428" cy="15.982" r="2.389"/><path fill="none" stroke="#999" stroke-linecap="round" stroke-linejoin="round" stroke-miterlimit="10" d="M15.174 39.34h26.544m-26.544 5.309h31.852m3.582-1.725l-1.459-2.921-1.855 1.725-.533-7.831 5.84 5.177-1.993.133"/></svg>