<svg xmlns="http://www.w3.org/2000/svg" width="100" height="90" viewBox="-18.655 -13.934 100 90"><path fill="none" stroke="#999" stroke-linecap="round" stroke-linejoin="round" stroke-miterlimit="10" d="M35.278 44.069s5.718-17.444-9.866-25.024c-6.72-3.288-14.585-3.573-21.161.144-5.434 3.003-10.724 9.007-9.723 21.017l-5.578 9.866s-2.572 4.005 4.577 3.003v7.864s0 7.58 9.293 3.147v8.294m24.593-56.192S21.694-1.256 37.279-8.836c6.72-3.288 14.584-3.573 21.161.146 5.433 3.003 10.722 9.008 9.723 21.019l5.577 9.867s2.573 4.003-4.578 3v7.865s0 7.578-9.292 3.146v8.295"/><path fill="none" stroke="#999" stroke-linecap="round" stroke-linejoin="round" stroke-miterlimit="10" d="M49.717 67.521a2.26 2.26 0 0 0 2.29-2.29V49.073a2.26 2.26 0 0 0-2.29-2.288H22.982a2.26 2.26 0 0 0-2.287 2.288V65.23a2.259 2.259 0 0 0 2.287 2.29H33.56l4.291 6.003V67.52h6.005M23.839 52.219h12.868m-11.438 5.719h17.157"/></svg>