<svg xmlns="http://www.w3.org/2000/svg" width="100" height="90" viewBox="-25 -18.676 100 90"><path fill="none" stroke="#999" stroke-linecap="round" stroke-linejoin="round" stroke-miterlimit="10" d="M6.711 38.494v5.523l-11.65 7.617-11.497-7.617V28.339L-4.939 37.3l11.65-8.961v4.782m-23.147-4.782l11.497-8.361 11.65 8.361m-11.65 9.259l.299 13.886m71.077-14.631v5.672l-11.648 7.616-11.499-7.616V26.847l11.499 8.957 11.648-8.957v4.777M43.29 26.847l11.499-8.362 11.648 8.362m-11.648 9.258l.299 13.887M34.93 2.656l.148 4.035-11.645 7.614-11.498-7.614V-8.99L23.433-.031 35.078-8.99v4.779M11.935-8.99l11.498-8.362L35.078-8.99M23.433.267l.298 13.89M6.711 2.656L-5.685 11.02v4.927M39.857.714l15.678 9.26v4.478M-1.206 55.067L23.731 70l27.923-16.872"/><path fill="none" stroke="#999" stroke-linecap="round" stroke-linejoin="round" stroke-miterlimit="10" stroke-dasharray="3" d="M24.182 15.947v50.768"/></svg>