<svg xmlns="http://www.w3.org/2000/svg" width="100" height="90" viewBox="-19.375 -17.94 100 90"><path fill="none" stroke="#999" stroke-linecap="round" stroke-linejoin="round" stroke-miterlimit="10" d="M54.776-7.388c-3.438-3.246-7.256-6.108-11.073-8.783-.575-.38-.575 0-.764-.38 0 0-.764-.574-.955-.574 0 .192.38.764.575 1.146 2.862 4.582 5.345 9.546 7.063 14.701 1.335 3.82 2.099 7.828 2.671 12.025a96.313 96.313 0 0 1 0 10.503c-.382 2.482-.955 4.961-1.527 7.449-.382.951-.575 1.337-1.527.573-4.009-2.864-8.019-5.725-12.028-8.591-3.435-2.671-8.972-7.064-12.407-9.74"/><path fill="none" stroke="#999" stroke-linecap="round" stroke-linejoin="round" stroke-miterlimit="10" d="M3.8 7.313C-.018 4.069-4.027 1.013-8.034-1.85c-.575-.381-.956-1.145-1.909-.955C-6.888 1.205-4.024 5.404-.78 9.22a121.371 121.371 0 0 0 11.264 12.985c4.009 4.393 8.211 8.591 12.791 12.409 0 0 0 .188.191.188 4.009 3.629 8.016 7.446 12.217 11.069.575.578.384.767 0 .955-.951.575-1.907 1.145-2.862 1.527-5.538 2.291-11.265 2.866-17.183 3.246-4.009.191-8.019-.189-12.028-.953-1.906-.381-3.628-.952-5.536-1.527-.192 0-.381-.188-.381-.188-5.728-2.103-11.264-4.773-16.419-8.016-.191-.191-.383-.382-.764-.191 2.1 3.245 4.199 6.491 6.872 9.354C-7.462 55.999-1.354 60.772 5.71 64.393c7.448 3.821 15.466 6.111 23.673 6.687 5.538.381 11.266.188 16.611-1.53 4.198-1.335 7.828-3.626 11.834-5.536 5.92-2.67 11.456-2.291 16.802 1.53 1.91 1.527 3.629 3.242 5.156 4.961.191.188.383.575.764.381.191-.188.191-.381.191-.764 0-2.1 0-4.008-.191-6.108-.764-5.537-2.291-10.69-5.726-15.274-.38-1.339-1.339-2.291-2.102-3.246-.572-.572-.572-1.144-.381-1.716.956-3.244 1.527-6.49 1.527-9.93.191-4.393-.191-8.782-1.335-12.981-.764-3.629-2.105-7.067-3.821-10.501-.575-1.335-1.339-2.674-2.103-3.818-2.29-3.631-4.772-7.063-7.639-10.118"/><path fill="none" stroke="#999" stroke-linecap="round" stroke-linejoin="round" stroke-miterlimit="10" d="M21.364 8.077C15.445 2.922 9.527-2.231 3.608-7.576c-.189-.192-.189-.38-.572-.192C5.138-4.904 7.046-2.041 9.144.823c2.482 3.629 4.964 7.254 7.828 10.501 2.482 3.435 4.773 6.108 7.829 9.354 1.145 1.527 2.291 2.099 2.482 3.434-1.336-.955-2.482-1.719-3.627-2.291-1.527-1.144-3.054-2.101-4.581-3.246-4.201-2.863-8.211-6.108-12.221-9.163"/></svg>