<svg xmlns="http://www.w3.org/2000/svg" width="100" height="120" viewBox="-24.499 -27.406 100 120"><path fill="none" stroke="#999" stroke-linecap="round" stroke-linejoin="round" stroke-miterlimit="10" d="M-6.339.939v-13.33c0-3.33 2.962-6.108 6.664-6.108h51.834c3.702 0 6.849 2.778 6.849 6.108V28.89m-.184 39.803v8.887c0 3.331-2.963 6.108-6.665 6.108H1.807c-4.443 0-8.146-3.333-8.146-7.402V32.594m0-39.617h64.791M-6.339 70.728h64.791M23.278-12.576h9.258"/><circle fill="none" stroke="#999" stroke-linecap="round" stroke-linejoin="round" stroke-miterlimit="10" cx="27.908" cy="77.207" r="2.407"/><path fill="none" stroke="#999" stroke-linecap="round" stroke-linejoin="round" stroke-miterlimit="10" d="M22.909 29.076c1.667 0 2.961-1.295 2.961-2.96V5.384c0-1.668-1.294-2.964-2.961-2.964h-34.248c-1.665 0-2.962 1.295-2.962 2.964v20.732c0 1.665 1.295 2.96 2.962 2.96H2.177l5.552 7.591v-7.591h7.591m18.881 25.546c-1.293 0-2.405-1.109-2.405-2.405V34.813c0-1.294 1.112-2.405 2.405-2.405h28.693c1.296 0 2.409 1.11 2.409 2.405v17.404c0 1.294-1.113 2.405-2.409 2.405h-11.29l-4.63 6.481v-6.481h-6.479"/><path fill="none" stroke="#999" stroke-linecap="round" stroke-linejoin="round" stroke-miterlimit="10" stroke-dasharray="3" d="M41.791 46.664h18.514m-18.514-5.552h18.514M-8.191 17.044h27.768M-8.191 11.49h18.512"/></svg>