<svg xmlns="http://www.w3.org/2000/svg" width="100" height="120" viewBox="-26.356 -28.125 100 120"><path fill="none" stroke="#999" stroke-linecap="round" stroke-linejoin="round" stroke-miterlimit="10" d="M16.556 50.884l-1.45-12.242m-1.289-7.573L11.403 9.968H-4.708l-10.148 72.489H4.957"/><path fill="none" stroke="#999" stroke-linecap="round" stroke-linejoin="round" stroke-miterlimit="10" d="M62.144 54.105V38.48L46.841 53.462h-2.416V41.22L31.857 53.462H8.985v30.606h53.159zM-4.708 19.632h16.111"/><path fill="none" stroke="#999" stroke-linecap="round" stroke-linejoin="round" stroke-miterlimit="10" stroke-dasharray="2" d="M30.41 62.644h8.374v8.858H30.41zm14.497 0h8.378v8.858h-8.378z"/><path fill="none" stroke="#999" stroke-linecap="round" stroke-linejoin="round" stroke-miterlimit="10" d="M1.737-14.197c0 1.451-3.223 1.451-3.223 2.739 0 1.451 3.223 1.451 3.223 2.739 0 1.449-3.223 1.449-3.223 2.738 0 1.447 3.223 1.447 3.223 2.899 0 1.449-3.223 1.449-3.223 2.898s3.223 1.452 3.223 2.901m7.086-23.035c0 1.933-3.223 1.933-3.223 3.866 0 1.934 3.223 1.934 3.223 3.867S5.6-10.652 5.6-8.719c0 1.932 3.223 1.932 3.223 3.865C8.823-2.92 5.6-2.92 5.6-.987S8.823.946 8.823 2.878"/></svg>