<svg xmlns="http://www.w3.org/2000/svg" width="100" height="90" viewBox="-18.166 -16.8 100 90"><path fill="none" stroke="#999" stroke-linecap="round" stroke-linejoin="round" stroke-miterlimit="10" d="M57.755 63.475c7.966 0 14.413-6.448 14.413-14.413s-6.449-14.414-14.539-14.414a14.06 14.06 0 0 0-6.574 1.643c-2.403-9.483-11.128-16.563-21.37-16.563-12.013 0-21.748 9.609-22 21.496-1.391-.508-2.908-.886-4.426-.886-6.449 0-11.759 5.181-11.759 11.758 0 6.449 5.31 11.761 11.758 11.761h26.554m7.585-.128h6.321m3.794 0h2.529"/><path fill="none" stroke="#999" stroke-linecap="round" stroke-linejoin="round" stroke-miterlimit="10" d="M40.558 22.635V11.889h6.954M19.063 22.635V-4.549h-5.689"/><circle fill="none" stroke="#999" stroke-linecap="round" stroke-linejoin="round" stroke-miterlimit="10" cx="51.306" cy="11.889" r="2.908"/><circle fill="none" stroke="#999" stroke-linecap="round" stroke-linejoin="round" stroke-miterlimit="10" cx="29.809" cy="-2.021" r="2.907"/><circle fill="none" stroke="#999" stroke-linecap="round" stroke-linejoin="round" stroke-miterlimit="10" cx="9.58" cy="-4.549" r="2.908"/><path fill="none" stroke="#999" stroke-linecap="round" stroke-linejoin="round" stroke-miterlimit="10" d="M29.179 1.141v17.701"/></svg>