<svg xmlns="http://www.w3.org/2000/svg" width="100" height="90" viewBox="-13.649 -11.946 100 90"><path fill="none" stroke="#999" stroke-miterlimit="10" d="M21.829 66.177L-6.5 71.898V6.945L21.829 1.22zm0-64.813h28.327V66.32H21.829z"/><path fill="none" stroke="#999" stroke-linecap="round" stroke-linejoin="round" stroke-miterlimit="10" stroke-dasharray="3" d="M50.873 1.364L79.202-5.79v64.813l-28.329 7.154"/><path fill="none" stroke="#999" stroke-linecap="round" stroke-linejoin="round" stroke-miterlimit="10" d="M32.703 12.81h7.009v7.87h-7.009zm.859 23.893h5.15v5.581h-5.15zm-23.323 7.154l-5.149 1.43v-5.579l5.149-1.431zm56.229-4.293l-5.151 1.431v-5.579l5.151-1.431zm0 17.169l-5.151 1.431v-5.723l5.151-1.43zM35.707 25.401v7.151M7.092 35.416V22.539l10.732-4.436m7.152-.572h4.293m14.307 0h4.293m5.579-.142l10.872-2.863v16.597m0 12.877v4.291M23.546-5.361h12.877m2.862 0h4.291"/></svg>