<svg xmlns="http://www.w3.org/2000/svg" width="100" height="90" viewBox="-12.852 -10.5 100 90"><path fill="none" stroke="#999" stroke-linecap="round" stroke-linejoin="round" stroke-miterlimit="10" d="M63.697 50.996H-1.435V-2.668h75.467v53.664H69.22m-33.418.143v22.653m-19.114.708h39.646"/><path fill="none" stroke="#999" stroke-linecap="round" stroke-linejoin="round" stroke-miterlimit="10" d="M78.846-2.668H-4.551c-.708 0-1.417-.708-1.417-1.417 0-.708.708-1.416 1.417-1.416h83.399c.709 0 1.416.708 1.416 1.416 0 .71-.708 1.417-1.418 1.417zm-11.892 0v8.495"/><circle fill="none" stroke="#999" stroke-linecap="round" stroke-linejoin="round" stroke-miterlimit="10" cx="66.954" cy="8.66" r="2.123"/><path fill="none" stroke="#999" stroke-linecap="round" stroke-linejoin="round" stroke-miterlimit="10" d="M14.99 31.173h6.513v8.638H14.99zm11.611-4.391h6.511v13.025h-6.511zm12.317-2.83h6.513V39.81h-6.513zm12.035-5.382h6.513v21.24h-6.513z"/><path fill="none" stroke="#999" stroke-linecap="round" stroke-linejoin="round" stroke-miterlimit="10" stroke-dasharray="2" d="M15.414 25.367l10.62-8.071 2.407 3.258 10.761-7.363 1.555 3.114 12.038-7.787"/></svg>