<svg xmlns="http://www.w3.org/2000/svg" width="100" height="90" viewBox="-17.17 -13.431 100 90"><path fill="none" stroke="#999" stroke-linecap="round" stroke-linejoin="round" stroke-miterlimit="10" d="M3.335 51.397H2.24a5.86 5.86 0 0 1-5.902-5.901v-2.883a5.86 5.86 0 0 1 5.902-5.902h1.095v14.686zm58.99 0h1.096a5.859 5.859 0 0 0 5.901-5.901v-2.883a5.86 5.86 0 0 0-5.901-5.902h-1.096v14.686z"/><path fill="none" stroke="#999" stroke-linecap="round" stroke-linejoin="round" stroke-miterlimit="10" d="M3.335 38.227V26.702c0-16.051 12.487-29.635 28.541-30.185 16.603-.552 30.458 12.899 30.458 29.495v12.346m-.009 10.712s.272 15.368-19.485 14.546"/><circle fill="none" stroke="#999" stroke-linecap="round" stroke-linejoin="round" stroke-miterlimit="10" cx="39.556" cy="63.615" r="3.021"/><path fill="none" stroke="#999" stroke-linecap="round" stroke-linejoin="round" stroke-miterlimit="10" d="M14.859 9.004C19.246 3.653 25.832.772 32.83.772M11.287 15.178a18.67 18.67 0 0 1 1.647-3.292"/><path fill="none" stroke="#999" stroke-miterlimit="10" d="M1.277 36.86v15.091M64.384 36.86v15.091"/></svg>