<svg xmlns="http://www.w3.org/2000/svg" width="100" height="90" viewBox="-13.575 -13.24 100 90"><g fill="none" stroke="#999" stroke-miterlimit="10"><path stroke-linecap="round" stroke-linejoin="round" d="M51.657 62.743h-63.402v-50.72c0-5.394 4.372-9.766 9.764-9.766h44.747M84.014 53.27a9.454 9.454 0 0 1-9.473 9.474h-5.248M46.992 2.402h4.665"/><path d="M83.43 53.997c-1.456-1.895-4.371-4.227-9.329-3.06v-61.07s10.494-.729 10.494 5.977V53.56c.002.584-.729.876-1.165.437z"/><path stroke-linecap="round" stroke-linejoin="round" d="M21.194 41.609v3.061c0 .437-.292.729-.729.729h-1.749c-.291 0-.438.146-.584.292l-.874 1.165c-.146.292-.146.729.144 1.021l1.75 1.895a.707.707 0 0 1 0 1.022l-2.187 2.187a.706.706 0 0 1-1.021 0l-2.186-1.752c-.292-.143-.583-.29-.729-.143l-1.167.583a.801.801 0 0 0-.436.729v2.332c0 .436-.293.729-.729.729H8.075c-.436 0-.729-.293-.729-.729v-2.48a.795.795 0 0 0-.437-.728l-.873-.295c-.291-.143-.584 0-.875.146l-1.748 1.894c-.291.292-.728.292-1.167 0L.06 51.081a.705.705 0 0 1 0-1.02l1.457-1.752c.147-.144.291-.436.147-.729l-.438-1.601c-.145-.293-.436-.583-.726-.583h-2.478c-.436 0-.728-.292-.728-.729v-2.623c0-.437.292-.729.728-.729H.646a.795.795 0 0 0 .729-.437l.584-1.165c.144-.292.144-.73-.147-.873L.064 37.237c-.292-.291-.292-.729 0-1.166l2.186-2.186c.291-.293.729-.293 1.167 0l1.604 1.603c.142.143.436.292.728.143l1.02-.291c.291-.144.583-.438.583-.729v-2.913c0-.438.294-.728.729-.728h2.624c.437 0 .729.291.729.728v2.624c0 .29.144.436.292.583l1.02.874a.703.703 0 0 0 1.02 0l2.187-2.187a.704.704 0 0 1 1.021 0l2.186 2.039c.292.295.292.875 0 1.166l-1.313 1.166c-.436.438-.583 1.02-.292 1.458.292.437.728.729 1.167.729h2.04c.437 0 .728.29.728.729l-.296.73z"/><circle stroke-linecap="round" stroke-linejoin="round" cx="9.098" cy="43.506" r="4.226"/><path stroke-linecap="round" stroke-linejoin="round" d="M40.87 25.869v2.478c0 .292-.292.583-.582.583h-1.459c-.146 0-.438.146-.438.294l-.582 1.02c-.146.292-.146.583 0 .729l1.457 1.603c.291.291.291.582 0 .871l-1.751 1.751c-.29.293-.582.293-.873 0l-1.749-1.458c-.145-.145-.436-.145-.584-.145l-1.02.438c-.294.143-.438.292-.438.583v1.895c0 .292-.291.585-.584.585H30.08c-.291 0-.583-.293-.583-.585v-2.039c0-.295-.147-.438-.438-.585l-.728-.292c-.291-.146-.438 0-.728.145l-1.458 1.603c-.292.29-.583.29-.875 0l-1.895-1.75c-.291-.291-.291-.586 0-.875l1.167-1.456c.147-.142.147-.437.147-.583l-.438-1.313c-.146-.291-.291-.437-.583-.437h-2.04c-.291 0-.583-.291-.583-.583V26.16c0-.292.292-.586.583-.586h2.04c.292 0 .435-.143.583-.291l.583-.874c.146-.293.146-.584-.144-.729l-1.312-1.312c-.292-.292-.292-.585 0-.875l1.749-1.75c.292-.292.583-.292.872 0l1.313 1.313c.144.144.438.292.583.144l.875-.291c.291-.146.438-.292.438-.585v-2.331c0-.292.291-.585.583-.585h2.186c.293 0 .585.293.585.585v2.187c0 .143.143.291.291.438l.728.728a.94.94 0 0 0 .875 0l1.748-1.895c.291-.292.584-.292.875 0l1.748 1.75c.29.292.29.729 0 .875l-1.021.872c-.29.293-.437.875-.146 1.166.146.293.586.585.875.585h1.602c.291 0 .585.292.585.584l.148.586z"/><circle stroke-linecap="round" stroke-linejoin="round" cx="30.96" cy="27.472" r="3.352"/><path stroke-linecap="round" stroke-linejoin="round" d="M53.988-10.132h13.118v83.806H53.988zm.292 7.725h2.916M54.28 15.084h2.916M54.28 32.573h2.916M54.28 51.522h2.916M54.28 67.555h2.916"/><path stroke-linecap="round" stroke-linejoin="round" stroke-dasharray="5" d="M5.452 27.472v-6.56h13.847"/></g></svg>