<svg xmlns="http://www.w3.org/2000/svg" width="100" height="120" viewBox="-28 -28.712 100 120"><path fill="none" stroke="#999" stroke-linecap="round" stroke-linejoin="round" stroke-miterlimit="10" d="M13.111 41.558v7.541L-2.54 59.092-18 49.099V27.982L-2.54 39.86l15.651-11.878v6.221M-18 27.982L-2.54 16.86l15.651 11.122M-2.54 40.237l.377 18.668M29.89 21.571v-7.729l15.652 12.066L61 13.842v6.408"/><path fill="none" stroke="#999" stroke-linecap="round" stroke-linejoin="round" stroke-miterlimit="10" d="M61 19.497v15.462l-15.458 10.18-15.652-10.18v-5.468m0-15.649L45.542 2.905 61 13.842M45.542 26.285l.376 18.669m.944-70.142v20.74m-6.977-6.407l6.41 7.729 8.106-7.729M-2.163 87.94V65.317m-5.844 7.73l6.41-7.73 8.107 7.73"/><path fill="none" stroke="#999" stroke-width=".5" stroke-linecap="round" stroke-linejoin="round" stroke-miterlimit="10" stroke-dasharray="1" d="M29.89 25.528L12.543 38.919"/></svg>