<svg xmlns="http://www.w3.org/2000/svg" width="76" height="51.314" viewBox="-0.5 5.719 76 51.314"><path fill="none" stroke="#999" stroke-linecap="round" stroke-linejoin="round" stroke-miterlimit="10" d="M18.779 56.062V30.077h22.087v25.985m0 0V6.219h21.969v49.843M23.622 37.636h2.362m7.086 0h2.364m-11.812 5.905h2.362m7.086 0h2.364m10.629-30.708h2.362m7.087 0h2.362m-11.811 5.905h2.362m7.087 0h2.362m-11.811 5.907h2.362m7.087 0h2.362m-11.811 5.904h2.362m7.087 0h2.362m-11.811 5.906h2.362m7.087 0h2.362M46.063 42.36h2.362m7.087 0h2.362"/><path fill="none" stroke="#999" stroke-linecap="round" stroke-linejoin="round" stroke-miterlimit="10" d="M36.732 14.723L30.827 7.99.118 56.062m3.425.471H0m64.961 0H10.63m55.393-12.401L75 56.533h-2.953"/></svg>