<svg xmlns="http://www.w3.org/2000/svg" width="100" height="90" viewBox="-25.205 -18.4 100 90"><path fill="none" stroke="#999" stroke-linecap="round" stroke-linejoin="round" stroke-miterlimit="10" d="M27.697 66.2H-6.271a5.768 5.768 0 0 1-5.795-5.795V26.439a5.769 5.769 0 0 1 5.795-5.793h33.967a5.768 5.768 0 0 1 5.792 5.793v33.965c.001 3.22-2.734 5.796-5.791 5.796z"/><path fill="none" stroke="#999" stroke-linecap="round" stroke-linejoin="round" stroke-miterlimit="10" d="M1.135 20V8.572a5.771 5.771 0 0 1 5.793-5.796h33.966a5.77 5.77 0 0 1 5.793 5.796v33.963a5.77 5.77 0 0 1-5.793 5.797h-6.761"/><path fill="none" stroke="#999" stroke-linecap="round" stroke-linejoin="round" stroke-miterlimit="10" stroke-dasharray="3" d="M31.396 48.495H6.931a5.77 5.77 0 0 1-5.796-5.793V22.898"/><path fill="none" stroke="#999" stroke-linecap="round" stroke-linejoin="round" stroke-miterlimit="10" d="M16.106 1.971v-9.177A5.768 5.768 0 0 1 21.899-13h33.965a5.77 5.77 0 0 1 5.793 5.794v33.969a5.766 5.766 0 0 1-5.793 5.792h-9.177"/><path fill="none" stroke="#999" stroke-linecap="round" stroke-linejoin="round" stroke-miterlimit="10" stroke-dasharray="3" d="M44.598 32.555H21.901a5.77 5.77 0 0 1-5.797-5.792V5.192"/></svg>