<svg xmlns="http://www.w3.org/2000/svg" width="100" height="90" viewBox="-21 -16.208 100 90"><circle fill="none" stroke="#999" stroke-linecap="round" stroke-linejoin="round" stroke-miterlimit="10" cx="28.5" cy="31.665" r="7.629"/><path fill="none" stroke="#999" stroke-linecap="round" stroke-linejoin="round" stroke-miterlimit="10" d="M35.696 53.256c9.067-3.024 15.545-11.515 15.545-21.589C51.241 19 41.023 8.925 28.5 8.925c-12.524 0-22.742 10.217-22.742 22.743 0 10.217 6.622 18.708 15.833 21.73"/><path fill="none" stroke="#999" stroke-linecap="round" stroke-linejoin="round" stroke-miterlimit="10" d="M35.696 61.746c13.677-3.311 23.752-15.542 23.752-30.225 0-17.128-13.963-31.09-31.091-31.09-17.126 0-31.088 13.962-31.088 31.09 0 14.539 10.074 26.914 23.748 30.225"/><path fill="none" stroke="#999" stroke-linecap="round" stroke-linejoin="round" stroke-miterlimit="10" d="M35.696 70.525c18.425-3.451 32.385-19.574 32.385-38.86 0-21.878-17.703-39.582-39.581-39.582-21.877 0-39.581 17.705-39.581 39.582 0 19.433 14.104 35.696 32.671 39.003"/><path fill="none" stroke="#999" stroke-linecap="round" stroke-linejoin="round" stroke-miterlimit="10" d="M35.983 44.907c4.606-2.59 7.774-7.627 7.774-13.242 0-8.349-6.764-15.256-15.255-15.256s-15.256 6.763-15.256 15.256a15.211 15.211 0 0 0 7.916 13.386"/><path fill="none" stroke="#999" stroke-linecap="round" stroke-linejoin="round" stroke-miterlimit="10" d="M35.983 44.907c4.606-2.59 7.774-7.627 7.774-13.242 0-8.349-6.764-15.256-15.255-15.256s-15.256 6.763-15.256 15.256a15.211 15.211 0 0 0 7.916 13.386"/></svg>