<svg xmlns="http://www.w3.org/2000/svg" width="600.5" height="510.5" viewBox="0 0 600.5 510.5"><circle opacity=".61" fill="#F56E0B" stroke="#FFF" stroke-width="5" stroke-miterlimit="10" cx="292.032" cy="275.232" r="44.46"/><circle opacity=".61" fill="#F56E0B" cx="292.032" cy="215.203" r="44.459"/><circle opacity=".61" fill="#F56E0B" cx="261.716" cy="245.122" r="44.46"/><circle opacity=".61" fill="#F56E0B" cx="323.595" cy="245.122" r="44.46"/><path fill="none" stroke="#F56E0B" stroke-width="3" stroke-miterlimit="10" d="M383.342 244.532c0-25.006-17.165-45.997-40.354-51.848-6.758-21.788-27.071-37.613-51.082-37.613-24.174 0-44.591 16.044-51.209 38.063-22.358 6.403-38.729 26.982-38.729 51.398 0 24.391 16.336 44.951 38.658 51.379 6.539 22.145 27.016 38.311 51.28 38.311 24.1 0 44.47-15.944 51.151-37.858 23.154-5.875 40.285-26.851 40.285-51.832z"/><path opacity=".87" fill="none" stroke="#F56E0B" stroke-width="3" stroke-miterlimit="10" d="M408.159 244.501c0-31.849-21.863-58.585-51.397-66.036-8.607-27.751-34.479-47.906-65.061-47.906-30.79 0-56.794 20.436-65.223 48.478-28.477 8.156-49.327 34.367-49.327 65.465 0 31.064 20.805 57.252 49.237 65.438 8.328 28.205 34.409 48.794 65.313 48.794 30.695 0 56.639-20.308 65.15-48.218 29.489-7.483 51.308-34.199 51.308-66.015z"/><path opacity=".61" fill="none" stroke="#F56E0B" stroke-width="3" stroke-miterlimit="10" d="M430.716 244.472c0-38.067-26.132-70.025-61.435-78.931-10.288-33.171-41.213-57.263-77.767-57.263-36.801 0-67.886 24.426-77.96 57.945-34.039 9.749-58.96 41.078-58.96 78.248 0 37.132 24.869 68.435 58.853 78.218 9.955 33.713 41.129 58.324 78.068 58.324 36.689 0 67.7-24.273 77.873-57.635 35.248-8.941 61.328-40.875 61.328-78.906z"/><path opacity=".26" fill="none" stroke="#F56E0B" stroke-width="3" stroke-miterlimit="10" d="M453.179 244.444c0-44.263-30.385-81.419-71.431-91.773-11.962-38.567-47.918-66.58-90.419-66.58-42.79 0-78.93 28.4-90.645 67.374-39.576 11.334-68.552 47.761-68.552 90.979 0 43.173 28.915 79.567 68.427 90.943 11.574 39.198 47.82 67.813 90.77 67.813 42.658 0 78.714-28.224 90.542-67.012 40.983-10.397 71.308-47.526 71.308-91.744z"/><path fill="none" d="M281.032 190.094h85.124v21.138h-85.124z"/><text transform="translate(281.033 194.024)" fill="#F2F2F2" font-family="'MyriadPro-Regular'" font-size="5.713">Content</text><path fill="none" d="M223.706 244.646h85.124v21.138h-85.124z"/><text transform="translate(223.706 248.576)" fill="#F2F2F2" font-family="'MyriadPro-Regular'" font-size="5.713">User Goals</text><path fill="none" d="M328.254 244.646h85.124v21.138h-85.124z"/><text transform="translate(328.254 248.576)" fill="#F2F2F2" font-family="'MyriadPro-Regular'" font-size="5.713">Business Goals</text><path fill="none" d="M278.36 296.699h85.124v21.138H278.36z"/><text transform="translate(278.36 300.629)" fill="#F2F2F2" font-family="'MyriadPro-Regular'" font-size="5.713">Interaction</text><path fill="none" d="M279.542 161.316h23.208v21.138h-23.208z"/><text transform="translate(280.541 166.82)" fill="#424343" font-family="'MyriadPro-Regular'" font-size="7.998">Types</text><path fill="none" d="M248.584 141.526h85.124v21.139h-85.124z"/><text transform="translate(278.247 147.03)" fill="#424343" font-family="'MyriadPro-Regular'" font-size="7.998">Models</text><path fill="none" d="M248.584 117.817h85.124v21.139h-85.124z"/><text transform="translate(271.988 123.32)" fill="#424343" font-family="'MyriadPro-Regular'" font-size="7.998">Treatment</text><path fill="none" d="M248.584 95.045h85.124v21.139h-85.124z"/><text transform="translate(275.61 100.548)" fill="#424343" font-family="'MyriadPro-Regular'" font-size="7.998">Methods</text><path fill="none" d="M248.584 74.73h85.124v21.139h-85.124z"/><text transform="translate(268.728 80.233)" fill="#424343" font-family="'MyriadPro-Regular'" font-size="7.998">Architecture</text><path fill="none" d="M208.772 177.731h21.138v85.124h-21.138z"/><text transform="rotate(-90 238.565 24.29)" fill="#424343" font-family="'MyriadPro-Regular'" font-size="7.998">User Types</text><path fill="none" d="M121.395 169.601h21.138v85.123h-21.138z"/><text transform="rotate(-90 190.81 63.913)" fill="#424343" font-family="'MyriadPro-Regular'" font-size="7.998">Needs</text><path fill="none" d="M141.104 177.731h21.138v85.124h-21.138z"/><text transform="rotate(-90 204.731 58.124)" fill="#424343" font-family="'MyriadPro-Regular'" font-size="7.998">Motivations</text><path fill="none" d="M165.439 176.018h21.138v85.124h-21.138z"/><text transform="rotate(-90 216.042 45.1)" fill="#424343" font-family="'MyriadPro-Regular'" font-size="7.998">Behaviours</text><path fill="none" d="M189.167 176.824h21.138v85.123h-21.138z"/><text transform="rotate(-90 228.308 33.639)" fill="#424343" font-family="'MyriadPro-Regular'" font-size="7.998">Outcomes</text><path fill="none" d="M355.549 227.006h21.139v85.124h-21.139z"/><text transform="rotate(90 72.089 299.095)" fill="#424343" font-family="'MyriadPro-Regular'" font-size="7.998">Operations</text><path fill="none" d="M376.688 228.721h21.138v85.123h-21.138z"/><text transform="rotate(90 81.802 310.521)" fill="#424343" font-family="'MyriadPro-Regular'" font-size="7.998">Offerings</text><path fill="none" d="M399.127 227.006h21.139v85.124h-21.139z"/><text transform="rotate(90 93.878 320.885)" fill="#424343" font-family="'MyriadPro-Regular'" font-size="7.998">Outcomes</text><path fill="none" d="M423.693 232.1h21.138v85.123h-21.138z"/><text transform="rotate(90 103.615 335.714)" fill="#424343" font-family="'MyriadPro-Regular'" font-size="7.998">Mission</text><path fill="none" d="M281.216 323.652h85.124v21.139h-85.124z"/><text transform="translate(281.217 329.154)" fill="#424343" font-family="'MyriadPro-Regular'" font-size="7.998">Pattern</text><path fill="none" d="M280.645 342.624h85.124v21.139h-85.124z"/><text transform="translate(280.646 348.126)" fill="#424343" font-family="'MyriadPro-Regular'" font-size="7.998">System</text><path fill="none" d="M281.216 367.063h85.124v21.139h-85.124z"/><text transform="translate(281.217 372.566)" fill="#424343" font-family="'MyriadPro-Regular'" font-size="7.998">Device</text><path fill="none" d="M281.216 390.487h85.124v21.138h-85.124z"/><text transform="translate(281.217 395.99)" fill="#424343" font-family="'MyriadPro-Regular'" font-size="7.998">Human</text><path fill="none" d="M374.962 128.387h98.94v21.138h-98.94z"/><text transform="translate(388.344 133.89)" fill="#424343" font-family="'MyriadPro-Regular'" font-size="7.998">Business Generated</text><text transform="translate(409.769 143.487)" fill="#424343" font-family="'MyriadPro-Regular'" font-size="7.998">Content</text><path fill="none" d="M123.68 128.387h85.124v21.138H123.68z"/><text transform="translate(137.736 133.89)" fill="#424343" font-family="'MyriadPro-Regular'" font-size="7.998">User Generated</text><text transform="translate(151.579 143.487)" fill="#424343" font-family="'MyriadPro-Regular'" font-size="7.998">Content</text><path fill="none" d="M101.083 352.051h125.115v21.138H101.083z"/><text transform="translate(136.472 357.553)" fill="#424343" font-family="'MyriadPro-Regular'" font-size="7.998">Business Goals</text><text transform="translate(121.172 367.151)" fill="#424343" font-family="'MyriadPro-Regular'" font-size="7.998">Information Interaction</text><path fill="none" d="M381.417 352.051h85.124v21.138h-85.124z"/><text transform="translate(404.394 357.553)" fill="#424343" font-family="'MyriadPro-Regular'" font-size="7.998">User Goals</text><text transform="translate(381.512 367.151)" fill="#424343" font-family="'MyriadPro-Regular'" font-size="7.998">Information Interaction</text><path fill="none" d="M249.522 220.557h85.124v21.138h-85.124z"/><text transform="translate(283.933 223.7)" fill="#F2F2F2" font-family="'MyriadPro-Regular'" font-size="4.57">Compre</text><text transform="translate(282.94 229.185)" fill="#F2F2F2" font-family="'MyriadPro-Regular'" font-size="4.57">-hensive</text><path fill="none" d="M263.613 244.646h23.995v11.363h-23.995z"/><text transform="translate(263.613 247.79)" fill="#F2F2F2" font-family="'MyriadPro-Regular'" font-size="4.57">Useful</text><path fill="none" d="M283.883 262.855h85.124v21.138h-85.124z"/><text transform="translate(283.883 266)" fill="#F2F2F2" font-family="'MyriadPro-Regular'" font-size="4.57">Usability</text><path fill="none" d="M307.89 244.646h20.936v10.568H307.89z"/><text transform="translate(307.89 247.79)" fill="#F2F2F2" font-family="'MyriadPro-Regular'" font-size="4.57">Branded</text><path fill="none" d="M255.622 211.004h85.124v21.139h-85.124z"/><text transform="translate(255.622 214.148)" fill="#E6E6E6" font-family="'MyriadPro-Regular'" font-size="4.57">Reactions</text><path fill="none" d="M258.669 273.562h85.124V294.7h-85.124z"/><text transform="translate(258.668 276.705)" fill="#E6E6E6" font-family="'MyriadPro-Regular'" font-size="4.57">Actions</text><path fill="none" d="M304.45 274.132h85.124v21.139H304.45z"/><text transform="translate(304.45 277.277)" fill="#E6E6E6" font-family="'MyriadPro-Regular'" font-size="4.57">Transactions</text><path fill="none" d="M298.946 211.004h85.124v21.138h-85.124z"/><text transform="translate(298.945 214.148)" fill="#E6E6E6" font-family="'MyriadPro-Regular'" font-size="4.57">Communications</text><path fill="none" d="M283.501 241.146h85.124v21.138h-85.124z"/><text transform="translate(283.502 250.185)" fill="#FFF" font-family="'MyriadPro-Regular'" font-size="13.14">UX</text><circle fill="none" stroke="#F56E0B" stroke-width="3" stroke-miterlimit="10" cx="292.032" cy="244.646" r="216.031"/><path fill="none" d="M51.57 135.988h41.515v10.665H51.57z"/><text transform="translate(51.57 141.49)" fill="#424343" font-family="'MyriadPro-Regular'" font-size="7.998">Sitemap</text><path fill="none" d="M62.091 79.968h73.556v10.664H62.091z"/><text transform="translate(62.09 85.47)" fill="#424343" font-family="'MyriadPro-Regular'" font-size="7.998">Content Strategy</text><path fill="none" d="M121.585 34.867h75.602v10.665h-75.602z"/><text transform="translate(121.585 40.37)" fill="#424343" font-family="'MyriadPro-Regular'" font-size="7.998">Creative Direction</text><path fill="none" d="M250.569 7.857h106.974v10.665H250.569z"/><text transform="translate(250.57 13.36)" fill="#424343" font-family="'MyriadPro-Regular'" font-size="7.998">Information Architecture</text><path fill="none" d="M402.745 34.867h84.172v10.665h-84.172z"/><text transform="translate(402.746 40.37)" fill="#424343" font-family="'MyriadPro-Regular'" font-size="7.998">Visual Design</text><path fill="none" d="M457.749 79.968h84.171v10.664h-84.171z"/><text transform="translate(457.748 85.47)" fill="#424343" font-family="'MyriadPro-Regular'" font-size="7.998">Design Discovery</text><path fill="none" d="M22.894 170.591h64.271v14.282H22.894z"/><text transform="translate(22.894 176.094)" fill="#424343" font-family="'MyriadPro-Regular'" font-size="7.998">User Personas</text><path fill="none" d="M8.675 219.865h64.271v14.282H8.675z"/><text transform="translate(8.674 225.368)" fill="#424343" font-family="'MyriadPro-Regular'" font-size="7.998">User Interviews</text><path fill="none" d="M16.673 274.782h64.271v14.282H16.673z"/><text transform="translate(16.673 280.285)" fill="#424343" font-family="'MyriadPro-Regular'" font-size="7.998">User Research</text><path fill="none" d="M40.762 327.08h64.271v14.282H40.762z"/><text transform="translate(40.762 332.582)" fill="#424343" font-family="'MyriadPro-Regular'" font-size="7.998">User Flow</text><path fill="none" d="M52.744 366.048h64.271v14.282H52.744z"/><text transform="translate(52.744 371.55)" fill="#424343" font-family="'MyriadPro-Regular'" font-size="7.998">User Journey</text><path fill="none" d="M68.947 409.546h64.271v14.282H68.947z"/><text transform="translate(68.946 415.049)" fill="#424343" font-family="'MyriadPro-Regular'" font-size="7.998">Usability Testing</text><path fill="none" d="M497.567 137.035h111.575v14.283H497.567z"/><text transform="translate(497.568 142.538)" fill="#424343" font-family="'MyriadPro-Regular'" font-size="7.998">Subject Matter Expertise</text><path fill="none" d="M512.969 170.591h64.271v14.282h-64.271z"/><text transform="translate(512.969 176.094)" fill="#424343" font-family="'MyriadPro-Regular'" font-size="7.998">Identity</text><path fill="none" d="M518.813 198.377h64.271v14.283h-64.271z"/><text transform="translate(518.813 203.88)" fill="#424343" font-family="'MyriadPro-Regular'" font-size="7.998">Marketing</text><path fill="none" d="M522.324 229.586h86.818v14.283h-86.818z"/><text transform="translate(522.324 235.089)" fill="#424343" font-family="'MyriadPro-Regular'" font-size="7.998">Stakeholder Interviews</text><path fill="none" d="M519.468 274.445h72.536v14.283h-72.536z"/><text transform="translate(519.468 279.95)" fill="#424343" font-family="'MyriadPro-Regular'" font-size="7.998">Business Research</text><path fill="none" d="M589.702 339.677l-78.762.331-.06-14.282 78.762-.33z"/><text transform="translate(510.92 330.868)" fill="#424343" font-family="'MyriadPro-Regular'" font-size="7.998">Discovery Workshop</text><path fill="none" d="M488.631 366.127h96.167v14.282h-96.167z"/><text transform="translate(488.63 371.63)" fill="#424343" font-family="'MyriadPro-Regular'" font-size="7.998">Requirements Gathering</text><path fill="none" d="M461.667 409.546h87.08v14.282h-87.08z"/><text transform="translate(461.667 415.049)" fill="#424343" font-family="'MyriadPro-Regular'" font-size="7.998">Competitive Analysis</text><path fill="none" d="M154.493 471.913h94.95v14.282h-94.95z"/><text transform="translate(154.493 477.416)" fill="#424343" font-family="'MyriadPro-Regular'" font-size="7.998">Wireframes/Visualization</text><path fill="none" d="M117.016 444.205h64.271v14.282h-64.271z"/><text transform="translate(117.016 449.707)" fill="#424343" font-family="'MyriadPro-Regular'" font-size="7.998">Prototypes</text><path fill="none" d="M260.468 489.052h81.238v14.282h-81.238z"/><text transform="translate(260.468 494.555)" fill="#424343" font-family="'MyriadPro-Regular'" font-size="7.998">Interaction Design</text><path fill="none" d="M376.023 471.913h64.271v14.282h-64.271z"/><text transform="translate(376.023 477.416)" fill="#424343" font-family="'MyriadPro-Regular'" font-size="7.998">Development</text><path fill="none" d="M427.277 444.205h93.249v14.282h-93.249z"/><text transform="translate(427.277 449.708)" fill="#424343" font-family="'MyriadPro-Regular'" font-size="7.998">Feature Prioritization</text><path fill="none" stroke="#F56E0B" stroke-width="3" stroke-miterlimit="10" d="M166.1 123.039v-18.567h6.569"/><path fill="#F56E0B" d="M171.527 107.634l5.476-3.162-5.476-3.162z"/><path fill="none" stroke="#F56E0B" stroke-width="3" stroke-miterlimit="10" d="M163.814 372.126v18.567h6.57"/><path fill="#F56E0B" d="M169.242 393.569l5.476-3.162-5.476-3.162z"/><path fill="none" stroke="#F56E0B" stroke-width="3" stroke-miterlimit="10" d="M424.899 369.841v18.566h-6.57"/><path fill="#F56E0B" d="M419.472 384.96l-5.477 3.162 5.477 3.162z"/><path fill="none" stroke="#F56E0B" stroke-width="3" stroke-miterlimit="10" d="M432.326 123.039v-18.567h-6.57"/><path fill="#F56E0B" d="M426.898 101.31l-5.476 3.162 5.476 3.162z"/></svg>