<svg xmlns="http://www.w3.org/2000/svg" width="100" height="120" viewBox="0 0 100 120"><path fill="none" stroke="#999" stroke-linecap="round" stroke-linejoin="round" stroke-miterlimit="10" d="M60.23 96.968v9.014c0 3.428-2.887 6.132-6.133 6.132H7.573c-4.147 0-7.573-3.431-7.573-7.576V14.017c0-3.426 2.705-6.13 6.131-6.13h47.786c3.427 0 6.313 2.884 6.313 6.313v69.967M1.984 18.165h57.705M1.984 101.113h57.705M27.228 14.557h5.412"/><circle fill="none" stroke="#999" stroke-linecap="round" stroke-linejoin="round" stroke-miterlimit="10" cx="29.754" cy="106.521" r="2.164"/><path fill="none" stroke="#999" stroke-linecap="round" stroke-linejoin="round" stroke-miterlimit="10" d="M40.395 79.833H22.542a6.462 6.462 0 0 1-6.492-6.488V59.639a6.466 6.466 0 0 1 6.492-6.492h17.853a6.465 6.465 0 0 1 6.49 6.492v13.706c.001 3.605-3.067 6.488-6.49 6.488zm19.767 7.576v3.604"/><path fill="none" stroke="#999" stroke-miterlimit="10" d="M31.376 69.195a1.624 1.624 0 1 0 .004 3.248 1.624 1.624 0 0 0-.004-3.248z"/><path fill="none" stroke="#999" stroke-miterlimit="10" d="M30.836 72.082l-.9 4.507h3.244l-1.08-4.146z"/><path fill="none" stroke="#999" stroke-linecap="round" stroke-miterlimit="10" d="M24.884 51.885V48.46c0-5.41-4.147-9.738-9.196-9.738-5.048 0-9.196 4.328-9.196 9.738v8.835"/></svg>