<svg xmlns="http://www.w3.org/2000/svg" width="100" height="110" viewBox="-24.574 -25.474 100 110"><path fill="none" stroke="#999" stroke-linecap="round" stroke-linejoin="round" stroke-miterlimit="10" d="M63.175 28.649S72.618-.362 46.694-13.239c-11.333-5.495-24.553-5.837-35.368.171C2.228-8.089-6.527 2.041-4.813 22.128l-9.442 16.308s-4.292 6.695 7.726 4.978v13.049s0 12.705 15.45 5.322v13.733"/><path fill="none" stroke="#999" stroke-linecap="round" stroke-linejoin="round" stroke-miterlimit="10" d="M48.752 11.31l.171 4.119c0 .515-.515 1.031-1.032 1.031h-2.403a.938.938 0 0 0-.857.515l-1.03 1.717c-.345.344-.174 1.031.169 1.372l2.402 2.575c.345.344.345 1.032 0 1.545l-3.088 3.091c-.346.341-1.032.341-1.376 0l-2.918-2.402c-.342-.171-.688-.344-1.032-.171l-1.544.687c-.343.169-.687.515-.687 1.029v3.091c0 .513-.515 1.029-1.032 1.029H30.89c-.515 0-1.03-.513-1.03-1.029v-3.435c0-.513-.345-.857-.686-1.031l-1.204-.341c-.343-.17-.857 0-1.2.341l-2.403 2.576c-.344.513-1.031.513-1.545 0l-3.089-3.091c-.342-.343-.342-1.029 0-1.374l2.06-2.403c.172-.341.343-.685.172-1.029l-.688-2.234c-.17-.513-.513-.688-1.029-.688h-3.424c-.517 0-1.031-.513-1.031-1.031v-3.604c0-.515.515-1.031 1.031-1.031h3.604c.343 0 .687-.17.857-.515l.859-1.545c.172-.343.172-1.031-.17-1.372L19.74 5.643c-.515-.344-.515-1.032 0-1.545l2.919-2.919c.342-.344 1.029-.344 1.544 0l2.232 2.231c.344.342.688.342 1.028.342l1.375-.342c.514-.171.687-.516.687-1.032V-1.57c0-.515.515-1.03 1.029-1.03h3.606c.514 0 1.03.515 1.03 1.03v3.605c0 .343.172.514.344.858l1.375 1.201c.342.344 1.029.344 1.371 0l3.089-3.089c.346-.343 1.032-.343 1.547 0l3.091 2.918c.515.345.515 1.201 0 1.546l-1.714 1.542c-.517.515-.688 1.375-.346 2.062.346.515.858.859 1.547.859h2.747c.511.007.511 1.378.511 1.378z"/><circle fill="none" stroke="#999" stroke-linecap="round" stroke-linejoin="round" stroke-miterlimit="10" cx="32.098" cy="13.886" r="5.836"/><path fill="none" stroke="#999" stroke-linecap="round" stroke-linejoin="round" stroke-miterlimit="10" stroke-dasharray="2" d="M32.098-11.524A25.351 25.351 0 0 0 6.692 13.887m25.406 25.409a25.352 25.352 0 0 0 25.411-25.409"/></svg>