<svg xmlns="http://www.w3.org/2000/svg" width="76.201" height="55.304" viewBox="11.899 3.723 76.201 55.304"><path fill="none" stroke="#999" stroke-linecap="round" stroke-linejoin="round" stroke-miterlimit="10" d="M55.694 58.527h5.005m3.754 0h2.502m7.132-.25a13.46 13.46 0 0 0 13.514-13.516 13.457 13.457 0 0 0-13.514-13.512c-2.252 0-4.379.501-6.131 1.5-2.252-8.882-10.385-15.39-19.895-15.39-11.137 0-20.271 8.885-20.521 20.021-1.251-.502-2.627-.877-4.129-.877-6.006 0-11.012 4.881-11.012 10.887s4.881 10.887 11.012 10.887h24.773"/><path fill="none" stroke="#999" stroke-linecap="round" stroke-linejoin="round" stroke-miterlimit="10" d="M76.089 16.11c1.127-1.25 1.877-2.877 1.877-4.629a6.728 6.728 0 0 0-6.757-6.756 6.728 6.728 0 0 0-6.756 6.756c0 1.375.375 2.752 1.126 3.754 0 .125 3.003 3.754 2.502 8.258v1.001c0 .75.626 1.376 1.377 1.376h3.128c.751 0 1.376-.625 1.376-1.376v-1.126c-.125-.751-.125-5.131 2.127-7.258zm-7.507 7.383h5.13m-9.885-7.633l-2.503 1.125m.876-6.756l-2.627.125m3.754-4.504l-2.253-1.502m17.643 11.387l2.502 1.125m-.875-6.756l2.627.125m-3.753-4.504l2.252-1.502M70.083 7.977s-3.378.877-2.502 4.254"/></svg>