<svg xmlns="http://www.w3.org/2000/svg" width="100" height="90" viewBox="-17.761 -17.084 100 90"><path fill="none" stroke="#999" stroke-linecap="round" stroke-linejoin="round" stroke-miterlimit="10" d="M74.597 46.771v14.81c0 1.721-1.375 2.925-2.925 2.925H-7.191c-1.723 0-2.927-1.376-2.927-2.925V21.115v1.548-28.412c0-1.722 1.377-2.925 2.927-2.925h78.863c1.722 0 2.925 1.376 2.925 2.925v46.837M-10.12 7.511h84.202"/><circle fill="none" stroke="#999" stroke-miterlimit="10" cx="-.65" cy="-.41" r="1.894"/><circle fill="none" stroke="#999" stroke-miterlimit="10" cx="7.272" cy="-.41" r="1.894"/><circle fill="none" stroke="#999" stroke-miterlimit="10" cx="15.364" cy="-.41" r="1.894"/><path fill="none" stroke="#999" stroke-linecap="round" stroke-linejoin="round" stroke-miterlimit="10" d="M24.49 28.52l-11.708 7.058 11.708 7.061M40.33 28.52l11.713 7.058-11.713 7.061m-3.096-21.18c-.346.688-9.987 26.173-9.987 26.173"/><path fill="none" stroke="#999" stroke-linecap="round" stroke-linejoin="round" d="M7.272 16.465c-.344.517-.689.862-1.034 1.377"/><path fill="none" stroke="#999" stroke-linecap="round" stroke-linejoin="round" stroke-dasharray="1.8852,1.8852" d="M4.689 20.771c-1.894 3.616-2.926 7.75-2.926 12.052 0 6.37 2.239 12.227 6.027 16.877"/><path fill="none" stroke="#999" stroke-linecap="round" stroke-linejoin="round" d="M8.822 51.076l1.204 1.205"/><path fill="none" stroke="#999" stroke-miterlimit="10" d="M.04 17.155l.345 1.204 6.716-1.377.861 6.714 1.376-.171-1.205-8.093z"/><g fill="none" stroke="#999"><path stroke-linecap="round" stroke-linejoin="round" d="M56.174 52.108c.345-.518.691-.86 1.034-1.376"/><path stroke-linecap="round" stroke-linejoin="round" stroke-dasharray="1.8915,1.8915" d="M58.93 48.148c2.237-3.962 3.615-8.609 3.615-13.604 0-5.854-1.895-11.364-4.993-15.669"/><path stroke-linecap="round" stroke-linejoin="round" d="M56.691 17.498c-.345-.516-.69-.859-1.205-1.375"/><path stroke-miterlimit="10" d="M63.235 52.108l-.174-1.376-6.715 1.033-.516-6.889-1.378.174.691 8.265z"/></g></svg>