<svg xmlns="http://www.w3.org/2000/svg" width="75" height="61.092" viewBox="12.667 10.287 75 61.092"><path fill="none" stroke="#999" stroke-linecap="round" stroke-linejoin="round" stroke-miterlimit="10" d="M73.136 21.961a960.984 960.984 0 0 1-17.258-6.208c-2.111-.745-4.098-1.614-6.208-2.235-1.241.373-2.483.869-3.725 1.366-6.456 2.358-12.912 4.842-19.369 7.201-.496.125-.621.373-.621.869.125.621.248 1.118.248 1.738.249 1.987.373 4.097.621 6.084.869 7.946 1.738 15.769 2.607 23.714.124.621.373.993.869 1.241 4.842 2.855 9.684 5.587 14.403 8.443 1.613.868 3.104 1.985 4.842 2.73.249 0 .373-.124.497-.247 1.987-1.243 4.096-2.36 6.084-3.602 4.345-2.483 8.69-5.091 13.036-7.573.496-.248.745-.621.745-1.117.124-1.489.372-2.979.496-4.47 1.117-8.939 2.111-18.003 3.229-26.942.248-.619.125-.868-.496-.992z"/><path fill="none" stroke="#999" stroke-linecap="round" stroke-linejoin="round" stroke-miterlimit="10" d="M49.67 45.923h-5.463c-.373 0-.497.249-.621.496-.745 2.111-1.614 4.098-2.359 6.209-.125.372-.248.496-.745.496-1.366 0-2.607 0-3.973.125-.622 0-.622-.125-.373-.621 2.731-6.332 5.462-12.788 8.194-19.12 1.738-3.974 3.352-7.946 5.09-11.795.124-.248.248-.373.248-.621 1.242 2.732 2.483 5.463 3.601 8.194 3.353 7.698 6.828 15.396 10.181 23.093.125.249.249.621.372.994h-4.47c-.372 0-.372-.249-.496-.496-.868-1.988-1.738-3.974-2.483-6.085-.247-.62-.496-.869-1.241-.745-1.737-.124-3.6-.124-5.462-.124zm0-14.277c-.248.124-.248.373-.248.496-.87 2.111-1.738 4.222-2.483 6.332-.373.994-.745 1.986-1.242 2.979h8.568c-.126-.249-.126-.372-.249-.496l-3.353-7.45c-.248-.62-.496-1.365-.993-1.861zm-22.597-.87l-10.677.124"/><circle fill="none" stroke="#999" stroke-linecap="round" stroke-linejoin="round" stroke-miterlimit="10" cx="14.782" cy="30.901" r="1.615"/><path fill="none" stroke="#999" stroke-linecap="round" stroke-linejoin="round" stroke-miterlimit="10" d="M28.936 48.654h-7.45"/><circle fill="none" stroke="#999" stroke-linecap="round" stroke-linejoin="round" stroke-miterlimit="10" cx="19.749" cy="48.282" r="1.614"/><path fill="none" stroke="#999" stroke-linecap="round" stroke-linejoin="round" stroke-miterlimit="10" d="M76.115 38.723h7.449"/><circle fill="none" stroke="#999" stroke-linecap="round" stroke-linejoin="round" stroke-miterlimit="10" cx="85.552" cy="38.35" r="1.614"/><path fill="none" stroke="#999" stroke-linecap="round" stroke-linejoin="round" stroke-miterlimit="10" stroke-dasharray="2" d="M54.265 10.787l24.21 8.318-4.595 37.62-20.485 14.154"/></svg>