<svg xmlns="http://www.w3.org/2000/svg" width="100" height="120" viewBox="-14 -24 100 120"><path fill="none" stroke="#999" stroke-linecap="round" stroke-linejoin="round" stroke-miterlimit="10" d="M76.5 54.749V4.004c0-2.872-2.553-5.266-5.903-5.266H54m22.5 65.107V80.92c0 2.872-2.553 5.266-5.744 5.266H27.67c-3.83 0-7.021-2.872-7.021-6.223V51.398m39.735-41.49h15.957"/><path fill="none" stroke="#999" stroke-miterlimit="10" d="M20.489 75.335h55.852"/><circle fill="none" stroke="#999" stroke-linecap="round" stroke-linejoin="round" stroke-miterlimit="10" cx="48.415" cy="80.601" r="2.074"/><circle fill="none" stroke="#999" stroke-linecap="round" stroke-linejoin="round" stroke-miterlimit="10" stroke-dasharray="2" cx="27.192" cy="18.206" r="33.192"/><path fill="none" stroke="#999" stroke-linecap="round" stroke-linejoin="round" stroke-miterlimit="10" d="M33.575 7.355l4.149 8.937h8.457l-4.149-9.575H9.639l-2.554 9.575h22.5l3.67-8.937m-11.33 22.66h16.277a2.861 2.861 0 0 0 2.873-2.873v-10.85m-30.958.159v10.532c0 1.596 1.436 3.032 3.032 3.032h4.628m16.276-.16V7.515"/></svg>