<svg xmlns="http://www.w3.org/2000/svg" width="100" height="120" viewBox="-14 -24 100 120"><path fill="none" stroke="#999" stroke-linecap="round" stroke-linejoin="round" stroke-miterlimit="10" d="M71.447 59.23V14.91c0-2.599-2.292-4.585-5.044-4.585h-18.95m23.994 56.853v14.977c0 2.445-2.292 4.585-5.044 4.585H28.655c-3.362 0-6.113-2.446-6.113-5.503V42.266m24.605-22.313H71.6"/><path fill="none" stroke="#999" stroke-miterlimit="10" d="M22.694 76.5H71.6"/><path fill="none" stroke="#999" stroke-linecap="round" stroke-linejoin="round" stroke-miterlimit="10" d="M47.147 13.84h4.585"/><circle fill="none" stroke="#999" stroke-linecap="round" stroke-linejoin="round" stroke-miterlimit="10" cx="48.217" cy="81.849" r="1.834"/><path fill="none" stroke="#999" stroke-linecap="round" stroke-linejoin="round" stroke-miterlimit="10" d="M47.453 37.223V7.574c0-2.598-1.986-4.585-4.585-4.585H3.438C.84 2.989-1.3 5.128-1.3 7.727v29.189a5.48 5.48 0 0 0 5.502 5.503H32.17l7.335 11.769V42.419h3.057c2.598-.153 4.891-2.446 4.891-5.196z"/><path fill="none" stroke="#999" stroke-miterlimit="10" d="M23.458 2.378v-16.812"/><circle fill="none" stroke="#999" stroke-linecap="round" stroke-linejoin="round" stroke-miterlimit="10" cx="12.149" cy="17.508" r="3.057"/><circle fill="none" stroke="#999" stroke-linecap="round" stroke-linejoin="round" stroke-miterlimit="10" cx="32.781" cy="17.508" r="3.057"/><path fill="none" stroke="#999" stroke-linecap="round" stroke-linejoin="round" stroke-miterlimit="10" d="M15.97 31.262s6.877 5.196 12.685 0"/><circle fill="#FFF" cx="23" cy="-10.307" r="4.432"/><circle fill="none" stroke="#999" stroke-linecap="round" stroke-linejoin="round" stroke-dasharray="1.804,1.804" cx="23" cy="-10.307" r="4.432"/></svg>