<svg xmlns="http://www.w3.org/2000/svg" width="100" height="120" viewBox="-14 -24 100 120"><path fill="none" stroke="#999" stroke-linecap="round" stroke-linejoin="round" stroke-miterlimit="10" d="M38.264 10.582s7.014-21.376-17.536-25.05c0 0-20.375 0-18.537 21.544l-5.344 8.684s-1.169 3.507 3.841 2.672v7.014s0 6.846 8.35 2.838v7.683"/><path fill="none" stroke="#999" stroke-linecap="round" stroke-linejoin="round" stroke-miterlimit="10" stroke-dasharray="2" d="M19.726 35.967s-6.012-18.036 14.362-21.042c0 0 16.867-.167 15.365 17.535l4.509 7.181s.167 2.84-3.174 2.171v5.845s0 5.68-6.68 2.339v7.682"/><path fill="none" stroke="#999" stroke-linecap="round" stroke-linejoin="round" stroke-miterlimit="10" d="M73.5 53.668V.562c0-3.006-2.671-5.511-6.178-5.511H38.264M73.5 63.188v17.869c0 3.006-2.671 5.511-6.012 5.511h-45.09c-4.008 0-7.348-3.005-7.348-6.512V48.492M39.934 6.741h33.4"/><path fill="none" stroke="#999" stroke-miterlimit="10" d="M14.883 75.212h58.451"/><circle fill="none" stroke="#999" stroke-linecap="round" stroke-linejoin="round" stroke-miterlimit="10" cx="44.108" cy="80.723" r="2.171"/><path fill="none" stroke="#999" stroke-linecap="round" stroke-linejoin="round" stroke-miterlimit="10" d="M39.934 1.731h6.679"/></svg>