<svg xmlns="http://www.w3.org/2000/svg" width="100" height="90" viewBox="-19.875 -14.875 100 90"><path fill="none" stroke="#999" stroke-linecap="round" stroke-linejoin="round" stroke-miterlimit="10" d="M53.933 4.689c-1.33-1.332-2.81-2.366-4.437-3.4a34.482 34.482 0 0 0-19.371-5.915c-19.224 0-34.75 15.527-34.75 34.75 0 19.224 15.526 34.75 34.75 34.75s34.75-15.526 34.75-34.75c0-6.802-1.922-13.161-5.323-18.484-.444-.739-.888-1.332-1.331-2.07"/><path fill="none" stroke="#999" stroke-linecap="round" stroke-linejoin="round" stroke-miterlimit="10" d="M-4.478 28.94h27.801v2.366c0 3.992 3.253 7.246 7.245 7.246 3.993 0 7.244-3.252 7.244-7.246V28.94h25.436"/><circle fill="none" stroke="#999" stroke-linecap="round" stroke-linejoin="round" stroke-miterlimit="10" cx="30.716" cy="29.829" r="3.845"/><path fill="none" stroke="#999" stroke-linecap="round" stroke-linejoin="round" stroke-miterlimit="10" d="M39.145 6.908l-7.689 19.223M2.62 17.851l2.81 1.477m7.394-14.343l1.626 1.923M28.794-.337l.296 3.695m28.835 14.641l-2.958 1.329M47.131 4.689l-1.776 3.253"/></svg>