<svg xmlns="http://www.w3.org/2000/svg" width="100" height="90" viewBox="-21.5 -18.094 100 90"><path fill="none" stroke="#999" stroke-linecap="round" stroke-linejoin="round" stroke-miterlimit="10" d="M43.313 71.906h-62.581l13.424-39.329 9.263 14.75 26.095-60.693L45.771 29.55l12.292-16.445 17.206 58.801H54.657"/><path fill="#999" d="M29.514-13.555c.103 0 .183.086.183.188 0 .107-.084.19-.183.19a.187.187 0 0 1-.189-.19.187.187 0 0 1 .189-.188m0-4.539a4.728 4.728 0 0 0-4.729 4.725 4.728 4.728 0 0 0 4.729 4.728 4.728 4.728 0 0 0 4.725-4.728 4.728 4.728 0 0 0-4.725-4.725zm28.358 28.361a2.837 2.837 0 1 0-.002 5.674 2.837 2.837 0 0 0 .002-5.674zM-5.466 29.55a2.837 2.837 0 0 0 0 5.675c1.566 0 2.835-1.27 2.835-2.837S-3.9 29.55-5.466 29.55z"/><path fill="none" stroke="#999" stroke-linecap="round" stroke-linejoin="round" stroke-miterlimit="10" stroke-dasharray="2" d="M29.133-10.53v79.413"/></svg>