<svg xmlns="http://www.w3.org/2000/svg" width="100" height="172" viewBox="145.875 304.5 100 172"><g fill="none" stroke="#999" stroke-linecap="round" stroke-linejoin="round" stroke-miterlimit="10"><path d="M236.837 441.747v12.234c0 4.587-3.714 8.519-8.52 8.519h-63.136a10.257 10.257 0 0 1-10.268-10.269V328.802a8.298 8.298 0 0 1 8.301-8.302h64.883c4.807 0 8.52 3.932 8.52 8.52v95.249m-81.704-90.661h80.831m-80.831 113.599h80.831m-45.877-120.153h10.924"/><path d="M195.328 452.014a2.841 2.841 0 1 1-.001 5.683 2.841 2.841 0 0 1 .001-5.683zm-27.744-105.298h57.019v46.969h-57.019zm.438 61.169h32.769m-32.769 8.738h54.614m-54.614 8.737h54.614m-54.614 8.741h54.614m14.201-5.461v4.368"/></g></svg>