<svg xmlns="http://www.w3.org/2000/svg" width="108.109" height="70.059" viewBox="-27.5 -17.908 108.109 70.059"><path d="M23.601-13.974s-8.225 1.607-8.225 9.655m25.391 55.605H-6.438c-.358-7.328 5.007-14.303 12.516-15.911 3.039-.718 6.08-1.435 9.119-2.147 2.146-.535 3.041-1.79 2.861-3.935v-1.249c.179-1.79 0-3.222-1.252-4.473-1.43-1.43-1.43-3.574-1.788-5.544-.18-.713-.18-1.607-.358-2.501-1.43-.181-1.789-1.071-2.145-2.145-.358-1.609-.894-3.22-1.25-5.008-.181-1.249-.36-2.501 1.071-3.218-1.071-3.572-1.609-7.328-.892-11.084 1.073-5.899 5.9-10.373 11.979-11.266 3.041-.356 6.261-.356 9.119.716 5.724 1.966 9.3 6.796 9.478 12.874 0 3.041-.178 5.901-1.253 8.941 1.432.713 1.432 1.966 1.253 3.037a36.065 36.065 0 0 1-1.611 5.901c-.18.717-1.071 1.256-1.432 1.79-.18 0-.18-.179-.356-.179-.18 1.432-.536 3.039-.713 4.469-.18 1.79-1.073 3.22-2.147 4.471-.356.36-.533 1.075-.533 1.61 0 1.433.177 2.862.177 4.292 0 1.251.713 2.146 1.968 2.503 2.501.715 5.184 1.609 7.689 1.968 5.725.895 10.193 3.574 13.054 8.765 1.252 2.323 1.788 5.006 1.788 7.688h-9.117" fill="none" stroke="#999" stroke-linecap="round" stroke-linejoin="round" stroke-miterlimit="10"/><path fill="none" stroke="#999" stroke-linecap="round" stroke-linejoin="round" stroke-miterlimit="10" d="M48.455 29.832c1.072-.358 1.97-.539 3.041-.894 3.041-.895 3.399-1.432 2.683-4.829-2.683-.354-5.544-.538-7.868-2.324 2.506-3.577 2.324-7.689 2.324-11.801 0-2.501 0-5.184.36-7.689.891-5.184 4.473-8.227 9.834-8.404 1.609 0 3.039 0 4.647.358 4.114.892 6.975 3.935 7.512 8.581.358 2.146.182 4.471.358 6.795.178 2.682 0 5.365.358 8.045.18 1.428 1.074 2.859 1.611 4.469-2.145 1.611-5.008 1.611-7.87 1.788 0 1.071-.177 2.326 0 3.218.182.538.896 1.253 1.611 1.433 1.968.713 3.933 1.25 5.9 1.788 3.399.892 5.186 3.22 6.437 6.261.36.895.537 1.966.715 3.219H62.229m-70.633-.002H-27c.177-.893.177-1.609.358-2.322 1.071-3.399 2.862-6.082 6.614-7.153 1.609-.356 3.039-.895 4.652-1.253 2.683-.713 3.218-1.248 3.039-4.112v-1.071c-2.862-.358-5.544-.358-8.047-1.966 1.965-2.682 2.326-5.721 2.326-8.941 0-3.218-.179-6.257.179-9.475.893-7.51 6.078-10.374 13.052-9.479 5.723.717 8.762 4.114 9.3 9.835.179 2.681.179 5.543.179 8.223 0 3.399.356 6.618 2.324 9.655-2.324 1.79-5.186 1.97-7.868 2.324 0 .177-.181.177-.181.177-.18 3.936-.356 3.399 3.039 4.473.894.356 1.968.538 2.862.893"/></svg>