<svg xmlns="http://www.w3.org/2000/svg" width="92" height="59.867" viewBox="9.25 5.984 92 59.867"><path fill="none" stroke="#999" stroke-linecap="round" stroke-linejoin="round" stroke-miterlimit="10" d="M32.604 31.554V8.838c0-1.384 1.108-2.354 2.354-2.354h63.437c1.387 0 2.355 1.107 2.355 2.354v54.157c0 1.385-1.108 2.355-2.355 2.355H34.958c-1.385 0-2.354-1.109-2.354-2.355V38.617m0-19.113h67.869"/><path fill="none" stroke="#999" stroke-miterlimit="10" d="M40.36 11.47a1.523 1.523 0 1 0 0 3.045 1.523 1.523 0 0 0 0-3.045zm6.372 0a1.523 1.523 0 1 0 0 3.045 1.523 1.523 0 0 0 0-3.045zm6.372 0a1.523 1.523 0 1 0 0 3.046 1.523 1.523 0 0 0 0-3.046z"/><path fill="none" stroke="#999" stroke-linecap="round" stroke-linejoin="round" stroke-miterlimit="10" d="M46.04 49.836a21.103 21.103 0 0 1 21.192-21.19c11.774 0 21.191 9.556 21.191 21.19"/><path fill="none" stroke="#999" stroke-linecap="round" stroke-linejoin="round" stroke-miterlimit="10" d="M66.677 48.036c-.831 0-1.385.693-1.385 1.385 0 .831.691 1.386 1.385 1.386.831 0 1.385-.692 1.385-1.386.139-.692-.554-1.385-1.385-1.385zm14.544-8.173L67.785 48.59m-19.252.831h2.77m16.067-18.56v2.493m14.403 16.067h2.772M9.75 28.646h19.391m-11.08 8.309h11.08m-5.54 6.926h5.54"/></svg>