<svg xmlns="http://www.w3.org/2000/svg" width="100.002" height="90" viewBox="255.999 351 100.002 90"><g fill="none" stroke="#999" stroke-miterlimit="10"><path stroke-linecap="round" stroke-linejoin="round" d="M264.917 419.43v2.852c0 2.374 2.057 4.434 4.432 4.434h81.219c2.376 0 4.433-2.06 4.433-4.434v-32.456m-.001-5.701V369.72c0-2.375-2.057-4.434-4.433-4.434h-81.219c-2.375 0-4.432 2.059-4.432 4.434v10.766m1.266-7.284h88.661"/><circle cx="269.666" cy="369.244" r=".95"/><circle cx="272.832" cy="369.244" r=".95"/><circle cx="275.999" cy="369.244" r=".95"/><path stroke-linecap="round" stroke-linejoin="round" d="M257 382.544h39.897v34.513H257z"/><path stroke-linecap="round" stroke-linejoin="round" d="M257.792 414.05l10.291-10.293c.791-.79 1.899-.79 2.69 0l8.708 9.025m-3.008-3.324l7.441-7.442c.792-.791 1.9-.791 2.691 0l9.658 9.658"/><circle stroke-linecap="round" stroke-linejoin="round" cx="276.948" cy="397.583" r="2.692"/><path stroke-linecap="round" stroke-linejoin="round" d="M326.345 382.702h7.438v6.333h-7.438zm-15.833 26.597h7.44v6.334h-7.44zm15.833 0h7.438v6.334h-7.438zm15.04 0h7.441v6.334h-7.441zm-11.083-19.473v13.457h-17.415v2.373"/><path stroke-linecap="round" stroke-linejoin="round" d="M329.511 403.283h15.041v2.373m-39.582-31.663v52.245"/></g></svg>