<svg xmlns="http://www.w3.org/2000/svg" width="100" height="90" viewBox="-16.166 -15.705 100 90"><path fill="none" stroke="#999" stroke-linecap="round" stroke-linejoin="round" stroke-miterlimit="10" d="M74.334 47.324v14.157c0 1.646-1.318 2.799-2.8 2.799H-3.868c-1.647 0-2.798-1.318-2.798-2.799v-38.69 1.482-27.164c0-1.646 1.317-2.799 2.798-2.799h75.402c1.646 0 2.8 1.317 2.8 2.799v41.157m-81-28.48h80.507"/><path fill="none" stroke="#999" stroke-miterlimit="10" d="M2.389.401a1.81 1.81 0 1 0 0 3.621 1.81 1.81 0 0 0 0-3.621zm7.573 0a1.811 1.811 0 1 0 0 3.623 1.811 1.811 0 0 0 0-3.623zm7.739 0a1.81 1.81 0 1 0 0 3.621 1.81 1.81 0 0 0 0-3.621z"/><path fill="none" stroke="#999" stroke-linecap="round" stroke-linejoin="round" stroke-miterlimit="10" d="M33.504 55.226l.167-5.104c.33-9.385 7.902-16.793 17.286-16.793h.988"/><path fill="none" stroke="#999" stroke-linecap="round" stroke-linejoin="round" stroke-miterlimit="10" d="M49.145 30.034l4.939 3.294-4.116 3.951m-19.755 1.154c-3.13-4.28-8.232-6.914-13.829-6.914h-.988"/><path fill="none" stroke="#999" stroke-linecap="round" stroke-linejoin="round" stroke-miterlimit="10" d="M20.005 29.213l-4.445 2.963 3.786 3.457m11.69-10.864l3.621-5.27v17.122m3.951-12.183l-4.116-4.939"/></svg>